<?xml version="1.0" encoding="UTF-8" standalone="no"?>
<!-- Created with Inkscape (http://www.inkscape.org/) -->

<svg
   xmlns:dc="http://purl.org/dc/elements/1.1/"
   xmlns:cc="http://creativecommons.org/ns#"
   xmlns:rdf="http://www.w3.org/1999/02/22-rdf-syntax-ns#"
   xmlns:svg="http://www.w3.org/2000/svg"
   xmlns="http://www.w3.org/2000/svg"
   xmlns:xlink="http://www.w3.org/1999/xlink"
   xmlns:sodipodi="http://sodipodi.sourceforge.net/DTD/sodipodi-0.dtd"
   xmlns:inkscape="http://www.inkscape.org/namespaces/inkscape"
   width="63.5mm"
   height="71.120209mm"
   viewBox="0 0 63.5 71.120209"
   version="1.1"
   id="svg8"
   inkscape:version="0.92.2 (5c3e80d, 2017-08-06)"
   sodipodi:docname="deshipu.svg"
   inkscape:export-filename="/home/sheep/Pictures/logo/deshipu-logo.svg.png"
   inkscape:export-xdpi="200"
   inkscape:export-ydpi="200">
  <defs
     id="defs2" />
  <sodipodi:namedview
     id="base"
     pagecolor="#ffffff"
     bordercolor="#666666"
     borderopacity="1.0"
     inkscape:pageopacity="0.0"
     inkscape:pageshadow="2"
     inkscape:zoom="1.979899"
     inkscape:cx="143.0083"
     inkscape:cy="145.00267"
     inkscape:document-units="mm"
     inkscape:current-layer="layer1"
     showgrid="true"
     inkscape:snap-bbox="true"
     fit-margin-top="0"
     fit-margin-left="0"
     fit-margin-right="0"
     fit-margin-bottom="0"
     inkscape:window-width="992"
     inkscape:window-height="978"
     inkscape:window-x="100"
     inkscape:window-y="39"
     inkscape:window-maximized="0">
    <inkscape:grid
       type="xygrid"
       id="grid4485"
       units="in"
       spacingx="2.54"
       spacingy="2.54"
       originx="-12.7"
       originy="-220.97984" />
  </sodipodi:namedview>
  <metadata
     id="metadata5">
    <rdf:RDF>
      <cc:Work
         rdf:about="">
        <dc:format>image/svg+xml</dc:format>
        <dc:type
           rdf:resource="http://purl.org/dc/dcmitype/StillImage" />
        <dc:title></dc:title>
      </cc:Work>
    </rdf:RDF>
  </metadata>
  <g
     inkscape:label="Layer 1"
     inkscape:groupmode="layer"
     id="layer1"
     transform="translate(-12.7,-4.8999592)">
    <path
       sodipodi:type="inkscape:offset"
       inkscape:radius="2.5403826"
       inkscape:original="M 25.400391 4.9003906 C 18.364591 4.9003906 12.699219 10.56381 12.699219 17.599609 L 12.699219 55.699219 C 12.699219 62.735019 18.364591 68.400391 25.400391 68.400391 L 25.400391 73.480469 C 25.400391 74.887629 26.532293 76.019531 27.939453 76.019531 L 30.480469 76.019531 C 31.887629 76.019531 33.019531 74.887629 33.019531 73.480469 L 33.019531 68.400391 L 35.560547 68.400391 L 35.560547 73.480469 C 35.560547 74.887629 36.692449 76.019531 38.099609 76.019531 L 40.640625 76.019531 C 42.047785 76.019531 43.179688 74.887629 43.179688 73.480469 L 43.179688 68.400391 L 45.720703 68.400391 L 45.720703 73.480469 C 45.720703 74.887629 46.852606 76.019531 48.259766 76.019531 L 50.800781 76.019531 C 52.207941 76.019531 53.339844 74.887629 53.339844 73.480469 L 53.339844 68.400391 L 55.878906 68.400391 L 55.878906 73.480469 C 55.878906 74.887629 57.012762 76.019531 58.419922 76.019531 L 60.960938 76.019531 C 62.368097 76.019531 63.5 74.887629 63.5 73.480469 L 63.5 68.400391 C 70.5358 68.400391 76.199219 62.735019 76.199219 55.699219 L 76.199219 17.599609 C 76.199219 10.56381 70.5358 4.9003906 63.5 4.9003906 L 25.400391 4.9003906 z "
       xlink:href="#path4484"
       style="opacity:0.25;fill:#fff0f5;fill-opacity:1;stroke:none;stroke-width:2;stroke-linecap:round;stroke-linejoin:round;stroke-miterlimit:4;stroke-dasharray:none;stroke-dashoffset:0;stroke-opacity:1"
       id="path4486"
       inkscape:href="#path4484"
       d="m 25.400391,2.359375 c -8.399043,0 -15.242188,6.8407227 -15.242188,15.240234 v 38.09961 c 0,7.529451 5.511787,13.764569 12.701172,14.984375 v 2.796875 c 0,2.769461 2.310617,5.080078 5.080078,5.080078 h 2.541016 c 1.530308,0 2.871075,-0.743395 3.808593,-1.841797 0.937528,1.098881 2.27985,1.841797 3.810547,1.841797 h 2.541016 c 1.530309,0 2.871075,-0.743396 3.808594,-1.841797 0.937527,1.098881 2.279849,1.841797 3.810547,1.841797 h 2.541015 c 1.529736,0 2.871087,-0.742148 3.808594,-1.839844 0.93805,1.098008 2.280358,1.839844 3.810547,1.839844 h 2.541016 c 2.769461,0 5.080078,-2.310616 5.080078,-5.080078 v -2.796875 c 7.189059,-1.21988 12.699218,-7.455345 12.699218,-14.984375 V 17.599609 C 78.740234,9.2005678 71.899042,2.359375 63.5,2.359375 Z" />
    <path
       style="opacity:0.25;fill:#ff69b4;fill-opacity:1;stroke:none;stroke-width:7.55905533;stroke-linecap:round;stroke-linejoin:round;stroke-miterlimit:4;stroke-dasharray:none;stroke-dashoffset:0;stroke-opacity:1"
       d="m 96,18.519531 c -26.592,0 -48,21.408003 -48,48 V 210.51953 c 0,26.592 21.408,48 48,48 v 19.19922 c 0,5.3184 4.28121,9.60156 9.59961,9.60156 h 9.59961 c 5.3184,0 9.60156,-4.28316 9.60156,-9.60156 v -19.19922 h 9.59961 v 19.19922 c 0,5.3184 4.28121,9.60156 9.59961,9.60156 h 9.59961 c 5.3184,0 9.59961,-4.28316 9.59961,-9.60156 v -19.19922 h 9.60156 v 19.19922 c 0,5.3184 4.28121,9.60156 9.59961,9.60156 H 192 c 5.3184,0 9.59961,-4.28316 9.59961,-9.60156 v -19.19922 h 9.59961 v 19.19922 c 0,5.3184 4.28316,9.60156 9.60156,9.60156 h 9.59961 c 5.3184,0 9.59961,-4.28316 9.59961,-9.60156 v -19.19922 c 26.592,0 48,-21.408 48,-48 V 66.519531 c 0,-26.591997 -21.408,-48 -48,-48 z m 5.75977,9.59961 h 132.48046 c 24.46464,0 44.16016,19.695518 44.16016,44.160156 V 204.75977 c 0,24.46463 -19.69552,44.16015 -44.16016,44.16015 H 101.75977 c -24.464648,0 -44.160161,-19.69552 -44.160161,-44.16015 V 72.279297 c 0,-24.464638 19.695513,-44.160156 44.160161,-44.160156 z M 97.919922,85.71875 c -17.018879,0 -30.720703,13.701831 -30.720703,30.7207 v 92.16016 c 0,17.01888 13.701824,30.7207 30.720703,30.7207 h 92.160158 c 17.01888,0 30.7207,-13.70182 30.7207,-30.7207 v -92.16016 c 0,-17.018869 -13.70182,-30.7207 -30.7207,-30.7207 z m 26.501958,28.80078 h 0.75585 c 5.10868,0 9.22266,4.28121 9.22266,9.59961 v 38.40039 c 0,5.3184 -4.11398,9.59961 -9.22266,9.59961 h -0.75585 c -5.10868,0 -9.22266,-4.28121 -9.22266,-9.59961 v -38.40039 c 0,-5.3184 4.11398,-9.59961 9.22266,-9.59961 z m 38.40039,0 h 0.75585 c 5.10868,0 9.22266,4.28121 9.22266,9.59961 v 38.40039 c 0,5.3184 -4.11398,9.59961 -9.22266,9.59961 h -0.75585 c -5.10868,0 -9.22266,-4.28121 -9.22266,-9.59961 v -38.40039 c 0,-5.3184 4.11398,-9.59961 9.22266,-9.59961 z"
       transform="scale(0.26458333)"
       id="rect4487"
       inkscape:connector-curvature="0" />
  </g>
</svg>
